ModelForces
version=1
nRows=4
nColumns=119
inDegrees=no

This file contains the forces exerted on a model during a simulation.

A force is a generalized force, meaning that it can be either a force (N) or a torque (Nm).

Units are S.I. units (second, meters, Newtons, ...)
Angles are in degrees.

endheader
time	semimem_r	semiten_r	bifemlh_r	bifemsh_r	sar_r	grac_r	rect_fem_r	vas_med_r	vas_int_r	vas_lat_r	med_gas_r	lat_gas_r	femur_lat_meniscii_l.femur_lat_l.force.X	femur_lat_meniscii_l.femur_lat_l.force.Y	femur_lat_meniscii_l.femur_lat_l.force.Z	femur_lat_meniscii_l.femur_lat_l.torque.X	femur_lat_meniscii_l.femur_lat_l.torque.Y	femur_lat_meniscii_l.femur_lat_l.torque.Z	femur_lat_meniscii_l.meniscus_lat_l.force.X	femur_lat_meniscii_l.meniscus_lat_l.force.Y	femur_lat_meniscii_l.meniscus_lat_l.force.Z	femur_lat_meniscii_l.meniscus_lat_l.torque.X	femur_lat_meniscii_l.meniscus_lat_l.torque.Y	femur_lat_meniscii_l.meniscus_lat_l.torque.Z	femur_med_meniscii_l.femur_med_l.force.X	femur_med_meniscii_l.femur_med_l.force.Y	femur_med_meniscii_l.femur_med_l.force.Z	femur_med_meniscii_l.femur_med_l.torque.X	femur_med_meniscii_l.femur_med_l.torque.Y	femur_med_meniscii_l.femur_med_l.torque.Z	femur_med_meniscii_l.meniscus_med_l.force.X	femur_med_meniscii_l.meniscus_med_l.force.Y	femur_med_meniscii_l.meniscus_med_l.force.Z	femur_med_meniscii_l.meniscus_med_l.torque.X	femur_med_meniscii_l.meniscus_med_l.torque.Y	femur_med_meniscii_l.meniscus_med_l.torque.Z	femur_lat_meniscii_r.femur_lat_r.force.X	femur_lat_meniscii_r.femur_lat_r.force.Y	femur_lat_meniscii_r.femur_lat_r.force.Z	femur_lat_meniscii_r.femur_lat_r.torque.X	femur_lat_meniscii_r.femur_lat_r.torque.Y	femur_lat_meniscii_r.femur_lat_r.torque.Z	femur_lat_meniscii_r.meniscus_lat_r.force.X	femur_lat_meniscii_r.meniscus_lat_r.force.Y	femur_lat_meniscii_r.meniscus_lat_r.force.Z	femur_lat_meniscii_r.meniscus_lat_r.torque.X	femur_lat_meniscii_r.meniscus_lat_r.torque.Y	femur_lat_meniscii_r.meniscus_lat_r.torque.Z	femur_med_meniscii_r.femur_med_r.force.X	femur_med_meniscii_r.femur_med_r.force.Y	femur_med_meniscii_r.femur_med_r.force.Z	femur_med_meniscii_r.femur_med_r.torque.X	femur_med_meniscii_r.femur_med_r.torque.Y	femur_med_meniscii_r.femur_med_r.torque.Z	femur_med_meniscii_r.meniscus_med_r.force.X	femur_med_meniscii_r.meniscus_med_r.force.Y	femur_med_meniscii_r.meniscus_med_r.force.Z	femur_med_meniscii_r.meniscus_med_r.torque.X	femur_med_meniscii_r.meniscus_med_r.torque.Y	femur_med_meniscii_r.meniscus_med_r.torque.Z	femur_med_tibia_l.tibia_upper_l.force.X	femur_med_tibia_l.tibia_upper_l.force.Y	femur_med_tibia_l.tibia_upper_l.force.Z	femur_med_tibia_l.tibia_upper_l.torque.X	femur_med_tibia_l.tibia_upper_l.torque.Y	femur_med_tibia_l.tibia_upper_l.torque.Z	femur_med_tibia_l.femur_med_l.force.X	femur_med_tibia_l.femur_med_l.force.Y	femur_med_tibia_l.femur_med_l.force.Z	femur_med_tibia_l.femur_med_l.torque.X	femur_med_tibia_l.femur_med_l.torque.Y	femur_med_tibia_l.femur_med_l.torque.Z	femur_lat_tibia_l.tibia_upper_l.force.X	femur_lat_tibia_l.tibia_upper_l.force.Y	femur_lat_tibia_l.tibia_upper_l.force.Z	femur_lat_tibia_l.tibia_upper_l.torque.X	femur_lat_tibia_l.tibia_upper_l.torque.Y	femur_lat_tibia_l.tibia_upper_l.torque.Z	femur_lat_tibia_l.femur_lat_l.force.X	femur_lat_tibia_l.femur_lat_l.force.Y	femur_lat_tibia_l.femur_lat_l.force.Z	femur_lat_tibia_l.femur_lat_l.torque.X	femur_lat_tibia_l.femur_lat_l.torque.Y	femur_lat_tibia_l.femur_lat_l.torque.Z	femur_med_tibia_r.tibia_upper_r.force.X	femur_med_tibia_r.tibia_upper_r.force.Y	femur_med_tibia_r.tibia_upper_r.force.Z	femur_med_tibia_r.tibia_upper_r.torque.X	femur_med_tibia_r.tibia_upper_r.torque.Y	femur_med_tibia_r.tibia_upper_r.torque.Z	femur_med_tibia_r.femur_med_r.force.X	femur_med_tibia_r.femur_med_r.force.Y	femur_med_tibia_r.femur_med_r.force.Z	femur_med_tibia_r.femur_med_r.torque.X	femur_med_tibia_r.femur_med_r.torque.Y	femur_med_tibia_r.femur_med_r.torque.Z	femur_lat_tibia_r.tibia_upper_r.force.X	femur_lat_tibia_r.tibia_upper_r.force.Y	femur_lat_tibia_r.tibia_upper_r.force.Z	femur_lat_tibia_r.tibia_upper_r.torque.X	femur_lat_tibia_r.tibia_upper_r.torque.Y	femur_lat_tibia_r.tibia_upper_r.torque.Z	femur_lat_tibia_r.femur_lat_r.force.X	femur_lat_tibia_r.femur_lat_r.force.Y	femur_lat_tibia_r.femur_lat_r.force.Z	femur_lat_tibia_r.femur_lat_r.torque.X	femur_lat_tibia_r.femur_lat_r.torque.Y	femur_lat_tibia_r.femur_lat_r.torque.Z	aACL_R	pACL_R	aPCL_R	pPCL_R	aMCL_R	aLCL_R	aPCL_L	pPCL_L	aMCL_L	aLCL_L
      0.28504281	      0.00000000	    253.55205885	    209.42564715	    414.55597610	    140.04866984	    122.20499972	    193.64548795	     40.62016188	     67.10785784	     38.88418120	      0.00000000	      0.00000000	      2.76307435	     50.99597937	     -9.56042239	      5.21997485	     -0.02578839	      1.48581788	     -2.76307435	    -50.99597937	      9.56042239	     -1.74637766	      0.02558040	     -0.48301696	     -3.31599387	     20.97615968	     -3.40468921	      0.94473225	     -0.02138609	     -1.00501789	      3.31599387	    -20.97615968	      3.40468921	      0.28075727	      0.00368718	     -0.29758878	   4141.28011114	   -394.20531160	     82.65870305	    -22.41409892	     96.23372306	   1662.10432020	  -4141.28011114	    394.20531160	    -82.65870305	    -12.31432029	   -119.40656244	    -32.69023046	   2434.31464278	   -965.80955204	   -164.40427730	     48.19977031	    -45.84273567	    975.78060295	  -2434.31464278	    965.80955204	    164.40427730	     12.05525604	     38.15698330	    -38.44084180	      0.00000000	      0.00000000	      0.00000000	      0.00000000	      0.00000000	      0.00000000	      0.00000000	      0.00000000	      0.00000000	      0.00000000	      0.00000000	      0.00000000	      0.00000000	      0.00000000	      0.00000000	      0.00000000	      0.00000000	      0.00000000	      0.00000000	      0.00000000	      0.00000000	      0.00000000	      0.00000000	      0.00000000	   -216.34192429	    -53.66869413	     62.89995939	     -1.05769261	      4.38179870	      0.13470337	    216.34192429	     53.66869413	    -62.89995939	     26.24340885	     -3.71913470	     87.05598293	   -108.68650999	    -31.58451176	    -33.09487682	      1.18266054	     -4.17106758	      0.10242397	    108.68650999	     31.58451176	     33.09487682	    -14.13268523	      2.70107719	     43.82950923	      0.00000000	      0.00000000	   1197.42416457	    501.60819272	      0.00000000	      0.00000000	      0.00000000	      0.00000000	      0.00000001	      0.00000000
      0.29067633	      0.00000000	    256.95553254	    212.08694068	    420.36746987	    140.41190225	    123.30784145	    194.86061393	     40.62505228	     67.33414554	     38.92863024	      0.00000000	      0.00000000	      2.76307435	     50.99597937	     -9.56042239	      5.21997485	     -0.02578839	      1.48581788	     -2.76307435	    -50.99597937	      9.56042239	     -1.74637766	      0.02558040	     -0.48301696	     -3.31599387	     20.97615968	     -3.40468921	      0.94473225	     -0.02138609	     -1.00501789	      3.31599387	    -20.97615968	      3.40468921	      0.28075727	      0.00368718	     -0.29758878	   4267.32676110	   -529.15209365	    134.32971736	    -39.83849780	     99.54256454	   1713.48285093	  -4267.32676110	    529.15209365	   -134.32971736	    -16.09236978	   -124.89190854	    -36.55213169	   2220.44555603	   -956.07641159	   -165.23870362	     48.77666668	    -41.03608255	    889.95400658	  -2220.44555603	    956.07641159	    165.23870362	     11.89451845	     34.43140524	    -36.45154925	      0.00000000	      0.00000000	      0.00000000	      0.00000000	      0.00000000	      0.00000000	      0.00000000	      0.00000000	      0.00000000	      0.00000000	      0.00000000	      0.00000000	      0.00000000	      0.00000000	      0.00000000	      0.00000000	      0.00000000	      0.00000000	      0.00000000	      0.00000000	      0.00000000	      0.00000000	      0.00000000	      0.00000000	   -215.10984507	    -46.49654979	     63.25962758	     -0.95402416	      4.36630160	     -0.01411258	    215.10984507	     46.49654979	    -63.25962758	     26.26805838	     -3.68274563	     86.59509927	   -118.85633393	    -29.98796474	    -35.90061371	      1.15376097	     -4.56107088	     -0.00343666	    118.85633393	     29.98796474	     35.90061371	    -15.23459963	      2.95433246	     47.96305348	      0.00000000	      0.00000000	   1206.43231703	    509.42842842	      0.00000000	      0.00000000	      0.00000000	      0.00000000	      0.00000001	      0.00000000
      0.29905719	      0.00000000	    261.07899169	    215.50526006	    421.52607011	    142.79025408	    123.93293867	      0.00000000	     40.83118110	     67.74469264	     39.23981088	      0.00000000	      0.00000000	      2.76307435	     50.99597937	     -9.56042239	      5.21997485	     -0.02578839	      1.48581788	     -2.76307435	    -50.99597937	      9.56042239	     -1.74637766	      0.02558040	     -0.48301696	     -3.31599387	     20.97615968	     -3.40468921	      0.94473225	     -0.02138609	     -1.00501789	      3.31599387	    -20.97615968	      3.40468921	      0.28075727	      0.00368718	     -0.29758878	   3989.92282543	   -549.40794825	     88.54293708	    -20.88153822	     92.74669453	   1602.01674768	  -3989.92282543	    549.40794825	    -88.54293708	    -17.05203099	   -115.51623273	    -33.93855895	   1956.64032089	   -884.24007176	   -182.37630828	     57.10301481	    -35.43652043	    783.62436168	  -1956.64032089	    884.24007176	    182.37630828	     10.78738734	     30.63465243	    -31.97463453	      0.00000000	      0.00000000	      0.00000000	      0.00000000	      0.00000000	      0.00000000	      0.00000000	      0.00000000	      0.00000000	      0.00000000	      0.00000000	      0.00000000	      0.00000000	      0.00000000	      0.00000000	      0.00000000	      0.00000000	      0.00000000	      0.00000000	      0.00000000	      0.00000000	      0.00000000	      0.00000000	      0.00000000	   -209.12620730	    -39.00626994	     63.48037441	     -0.83663899	      4.29629835	     -0.10281953	    209.12620730	     39.00626994	    -63.48037441	     26.22961516	     -3.56970086	     84.20249137	   -132.87775706	    -28.88249661	    -40.00389430	      1.13926919	     -5.11116603	     -0.08590607	    132.87775706	     28.88249661	     40.00389430	    -16.86968542	      3.30844731	     53.63792847	      0.00000000	      0.00000000	   1218.65281241	    520.62075751	      0.00000000	      0.00000000	      0.00000000	      0.00000000	      0.00000001	      0.00000000
      0.29914100	      0.00000000	    261.10413591	    215.53212236	    421.62928512	    142.68580626	    123.94673603	      0.00000000	     40.82939484	     67.74616543	     39.23869613	      0.00000000	      0.00000000	      2.76307435	     50.99597937	     -9.56042239	      5.21997485	     -0.02578839	      1.48581788	     -2.76307435	    -50.99597937	      9.56042239	     -1.74637766	      0.02558040	     -0.48301696	     -3.31599387	     20.97615968	     -3.40468921	      0.94473225	     -0.02138609	     -1.00501789	      3.31599387	    -20.97615968	      3.40468921	      0.28075727	      0.00368718	     -0.29758878	   3906.25477524	   -537.16829390	     71.15483810	    -14.23065876	     90.69378293	   1568.56088908	  -3906.25477524	    537.16829390	    -71.15483810	    -16.73996019	   -112.54899010	    -33.32861665	   1952.01705028	   -884.37874584	   -182.41253483	     57.11739830	    -35.34856093	    781.78475957	  -1952.01705028	    884.37874584	    182.41253483	     10.78729798	     30.57112289	    -31.96682777	      0.00000000	      0.00000000	      0.00000000	      0.00000000	      0.00000000	      0.00000000	      0.00000000	      0.00000000	      0.00000000	      0.00000000	      0.00000000	      0.00000000	      0.00000000	      0.00000000	      0.00000000	      0.00000000	      0.00000000	      0.00000000	      0.00000000	      0.00000000	      0.00000000	      0.00000000	      0.00000000	      0.00000000	   -209.04262835	    -38.95353917	     63.44313883	     -0.83533706	      4.29382310	     -0.10277555	    209.04262835	     38.95353917	    -63.44313883	     26.21355212	     -3.56778532	     84.16876941	   -133.01736934	    -28.84271255	    -40.07978732	      1.13859040	     -5.11807545	     -0.08784038	    133.01736934	     28.84271255	     40.07978732	    -16.89949955	      3.31241403	     53.69478269	      0.00000000	      0.00000000	   1218.77403847	    520.73733240	      0.00000000	      0.00000000	      0.00000000	      0.00000000	      0.00000001	      0.00000000
